<svg width="13" height="22" viewBox="0 0 13 22" fill="none" xmlns="http://www.w3.org/2000/svg">
<path d="M11.3605 12.651C12.8886 12.651 12.9877 12.651 12.9877 12.651L8.84476 21.1364L6.50059 16.334L4.3334 20.7738H5.47844L6.48918 18.702L7.13812 20.0297L6.17542 22H2.43462L6.50059 13.6732L8.84476 18.4804L11.0889 13.8892H10.006L8.95736 16.033C8.95736 16.033 8.30624 14.7048 8.3084 14.6995C8.55893 14.0895 8.92624 12.651 11.3605 12.651ZM2.72842 18.1469L3.38602 16.8219L1.93643 13.896H3.2395L4.14043 15.7123C4.14043 15.7123 4.79176 14.3945 4.79803 14.3818C4.50013 13.677 4.34926 12.6578 1.63951 12.6578C0.0854411 12.6578 0.0146099 12.6578 0.012324 12.6578L2.72842 18.1469ZM10.3016 4.40877H2.69836V6.08573L5.20034 6.96027V11.0084H7.79966V6.96027L10.3016 6.08573V4.40877ZM1.63951 4.40877H0.012324V11.2969H1.63951V4.40877H1.63951ZM6.88748 13.1163C6.88748 13.1163 6.86498 13.0715 7.0034 13.3503C7.61747 12.9817 9.17663 11.9779 10.3016 11.2969L9.94489 7.61844H8.49987V11.2969L6.88748 13.1163ZM11.0275 0V1.57779H7.54349V0H5.45651V1.57779H1.97254V0H0V3.47613H13V0H11.0275ZM2.69836 11.2969C3.82337 11.9779 5.38253 12.9817 5.9966 13.3503C6.13502 13.0715 6.11252 13.1163 6.11252 13.1163L4.50013 11.2969V7.61844H3.05511L2.69836 11.2969ZM11.3605 4.40877V11.2969H12.9877V4.40877H11.3605Z" fill="url(#paint0_linear)"/>
<defs>
<linearGradient id="paint0_linear" x1="-0.148007" y1="20.5403" x2="10.9991" y2="-0.784931" gradientUnits="userSpaceOnUse">
<stop offset="0.04468" stop-color="#A18650"/>
<stop offset="0.34191" stop-color="#DBC481"/>
<stop offset="0.60269" stop-color="#A28650"/>
<stop offset="0.75831" stop-color="#AC8D57"/>
<stop offset="0.95091" stop-color="#D8C183"/>
</linearGradient>
</defs>
</svg>
