<svg width="13" height="10" viewBox="0 0 13 10" fill="none" xmlns="http://www.w3.org/2000/svg">
<path d="M13 2.59462V8.07692C13 8.58696 12.786 9.0761 12.4051 9.43674C12.0241 9.79739 11.5075 10 10.9688 10H2.03125C1.49253 10 0.975873 9.79739 0.594939 9.43674C0.214006 9.0761 0 8.58696 0 8.07692V2.59462L6.29363 6.10077C6.35615 6.13568 6.42741 6.15409 6.5 6.15409C6.57259 6.15409 6.64385 6.13568 6.70637 6.10077L13 2.59462ZM10.9688 2.38098e-08C11.4686 -7.43969e-05 11.9508 0.174313 12.3234 0.4898C12.6959 0.805287 12.9324 1.23972 12.9878 1.71L6.5 5.32308L0.0121876 1.71C0.0675661 1.23972 0.304138 0.805287 0.676646 0.4898C1.04915 0.174313 1.53144 -7.43969e-05 2.03125 2.38098e-08H10.9688Z" fill="url(#paint0_linear)"/>
<defs>
<linearGradient id="paint0_linear" x1="-0.148007" y1="9.33648" x2="2.62771" y2="-2.34583" gradientUnits="userSpaceOnUse">
<stop offset="0.04468" stop-color="#A18650"/>
<stop offset="0.34191" stop-color="#DBC481"/>
<stop offset="0.60269" stop-color="#A28650"/>
<stop offset="0.75831" stop-color="#AC8D57"/>
<stop offset="0.95091" stop-color="#D8C183"/>
</linearGradient>
</defs>
</svg>
