<svg width="12" height="12" viewBox="0 0 12 12" fill="none" xmlns="http://www.w3.org/2000/svg">
<path d="M8.42027 7.59943L6.7404 9.26597C5.07386 8.3127 3.69396 6.93281 2.7407 5.26627L4.40724 3.5864C4.56056 3.42641 4.62722 3.20642 4.58723 2.98644L4.08727 0.533293C4.02727 0.226649 3.75396 0 3.43398 0H0.667524C0.294219 0 -0.019091 0.31331 0.000907451 0.686615C0.114232 2.61314 0.700854 4.41967 1.62078 5.99955C2.67404 7.81941 4.18726 9.32596 6.00045 10.3792C7.58033 11.2925 9.38686 11.8858 11.3134 11.9991C11.6867 12.0191 12 11.7058 12 11.3325V8.56602C12 8.24604 11.7734 7.97273 11.4667 7.91273L9.02023 7.42611C8.9137 7.40292 8.80307 7.40662 8.69832 7.43688C8.59358 7.46713 8.49802 7.523 8.42027 7.59943V7.59943Z" fill="url(#paint0_linear)"/>
<defs>
<linearGradient id="paint0_linear" x1="-0.136622" y1="11.2038" x2="4.03952" y2="-2.31648" gradientUnits="userSpaceOnUse">
<stop offset="0.04468" stop-color="#A18650"/>
<stop offset="0.34191" stop-color="#DBC481"/>
<stop offset="0.60269" stop-color="#A28650"/>
<stop offset="0.75831" stop-color="#AC8D57"/>
<stop offset="0.95091" stop-color="#D8C183"/>
</linearGradient>
</defs>
</svg>
